<?xml version="1.0" encoding="UTF-8" standalone="no"?>
<!-- Created with Inkscape (http://www.inkscape.org/) -->

<svg
   width="1000.0001"
   height="1000.0001"
   viewBox="0 0 264.58335 264.58335"
   version="1.1"
   id="svg1"
   xmlns="http://www.w3.org/2000/svg"
   xmlns:svg="http://www.w3.org/2000/svg">
  <defs
     id="defs1" />
  <g
     id="layer1"
     transform="matrix(2.19362,0,0,2.19362,-6.5260229,-136.74458)"
     style="fill:#f8fafc;fill-opacity:1">
    <g
       id="g2"
       transform="translate(0.39759036,-0.39759036)"
       style="fill:#f8fafc;fill-opacity:1">
      <path
         id="rect1"
         style="fill:#f8fafc;fill-opacity:1;stroke-width:0.239704"
         d="m 41.294941,102.26165 h 10.73494 v 39.8127 l -17.891567,0.32633 z m 5.27879,-7.202783 z" />
      <path
         id="rect1-8"
         style="fill:#f8fafc;fill-opacity:1;stroke-width:0.240207"
         d="m 86.105477,101.80228 h -10.73494 v 39.97988 l 17.891556,0.3277 z m -5.278791,-7.233029 z" />
      <path
         id="rect2"
         style="fill:#f8fafc;fill-opacity:1;stroke-width:0.284996"
         d="m 32.841981,145.51808 h 62.276413 l 3.881605,8.74698 H 28.228914 Z" />
      <rect
         style="fill:#f8fafc;fill-opacity:1;stroke-width:0.261622"
         id="rect3"
         width="12.370109"
         height="39.52655"
         x="57.071186"
         y="102.02686" />
      <path
         id="rect8"
         style="fill:#f8fafc;fill-opacity:1;stroke-width:0.264583"
         d="m 63.314464,82.385387 23.392749,13.259692 2.050315,3.468069 H 38.293107 l 1.405695,-3.443951 z" />
    </g>
    <path
       d="m 118.00046,126.0884 -2.71341,-0.2113 q -0.87928,-0.0685 -1.10721,0.10729 -0.32258,0.2375 -0.36377,0.76644 l -0.0278,0.35721 -0.25416,-0.0198 0.3108,-3.99111 0.25416,0.0198 -0.0273,0.35034 q -0.046,0.59077 0.31889,0.87489 0.20225,0.15397 0.9991,0.21603 l 6.01759,0.46861 q 0.87928,0.0685 1.10667,-0.10042 0.32312,-0.24437 0.36431,-0.77331 l 0.0273,-0.35034 0.25417,0.0198 -0.26587,3.41409 q -0.0974,1.25023 -0.41456,1.95118 -0.31034,0.7015 -0.96023,1.14848 -0.64989,0.44699 -1.48796,0.38173 -1.14032,-0.0888 -1.79589,-0.90007 -0.65611,-0.8044 -0.54912,-2.17828 0.0262,-0.3366 0.10479,-0.72441 0.0786,-0.38781 0.20952,-0.82683 z m 0.39156,0.0305 q -0.097,0.35873 -0.15333,0.6377 -0.0563,0.27897 -0.0718,0.47819 -0.0556,0.71441 0.45379,1.27241 0.51577,0.5654 1.39505,0.63388 0.60451,0.0471 1.13897,-0.1601 0.54133,-0.20665 0.8308,-0.64023 0.29635,-0.43306 0.34128,-1.01008 0.0273,-0.35034 -0.0604,-0.91006 z m -6.60683,10.55714 8.56233,-1.23625 -5.98696,-1.76785 q -0.82601,-0.24391 -1.08355,-0.12598 -0.34973,0.16254 -0.50584,0.69119 l -0.0937,0.31719 -0.2445,-0.0722 0.921,-3.11903 0.2445,0.0722 -0.0937,0.31719 q -0.16781,0.5683 0.10557,0.90766 0.16853,0.20782 0.92186,0.43026 l 5.85479,1.72883 q 0.59473,0.17561 0.89808,0.1215 0.21895,-0.0359 0.41865,-0.24996 0.20436,-0.20547 0.36632,-0.75395 l 0.2445,0.0722 -0.74929,2.53752 -7.97124,1.18089 6.0668,5.26863 -0.74929,2.53751 -0.2445,-0.0722 0.0917,-0.31059 q 0.16976,-0.5749 -0.10362,-0.91426 -0.16853,-0.20782 -0.92185,-0.43026 l -5.85479,-1.72883 q -0.82602,-0.24391 -1.08551,-0.11937 -0.34973,0.16254 -0.50584,0.69119 l -0.0917,0.31058 -0.2445,-0.0722 1.12394,-3.80628 0.2445,0.0722 -0.0937,0.31719 q -0.16976,0.57491 0.10556,0.90766 0.16854,0.20782 0.92186,0.43026 l 5.98695,1.76785 -6.51934,-5.68244 z m 4.08847,13.52995 -3.22898,-1.74949 -0.81074,1.49635 q -0.279,0.51494 -0.18286,0.87266 0.0989,0.36705 0.7287,0.81015 l -0.12145,0.22415 -2.78068,-1.5066 0.12145,-0.22415 q 0.48187,0.25325 0.77167,0.25353 0.28651,0.006 0.51044,-0.14661 0.22671,-0.14361 0.44991,-0.55556 l 0.81074,-1.49636 -2.58076,-1.39828 q -0.62399,-0.33808 -0.86658,-0.36764 -0.18427,-0.0215 -0.39836,0.1133 -0.28981,0.18778 -0.44737,0.47857 l -0.16083,0.29685 -0.22415,-0.12145 1.91032,-3.52583 0.22416,0.12145 -0.15756,0.29079 q -0.27571,0.50888 -0.1036,0.89993 0.11509,0.25043 0.85418,0.65087 l 5.30691,2.87534 q 0.62399,0.33808 0.86658,0.36765 0.18427,0.0215 0.39507,-0.10725 0.28654,-0.18172 0.44738,-0.47857 l 0.15755,-0.29079 0.22415,0.12145 -3.31189,6.11264 -1.84799,-0.89938 0.11488,-0.21203 q 0.66086,0.15431 1.0423,0.0867 0.38422,-0.0583 0.67278,-0.30159 0.28528,-0.23726 0.63321,-0.87942 z m -10.26924,6.44224 -2.31075,2.71107 -0.79182,-0.6749 2.31074,-2.71107 z m -11.759424,6.72126 -0.161649,-0.19713 3.095562,-2.53833 0.161649,0.19714 -0.255744,0.2097 q -0.447551,0.36699 -0.435939,0.79408 0.01193,0.27535 0.544937,0.92536 l 3.827148,4.66732 q 0.44999,0.54879 0.66343,0.66781 0.1625,0.0895 0.40631,0.05 0.33929,-0.0644 0.59503,-0.27406 l 0.25574,-0.20971 0.16165,0.19714 -3.09556,2.53832 -0.161649,-0.19714 0.261072,-0.21407 q 0.442227,-0.36262 0.430607,-0.78971 -0.007,-0.27972 -0.539605,-0.92973 l -3.827147,-4.66732 q -0.449995,-0.54878 -0.663432,-0.66781 -0.162503,-0.0895 -0.411638,-0.0456 -0.333957,0.06 -0.589701,0.2697 z m 4.272195,8.37699 -2.185259,1.28602 -8.476804,-3.14211 2.732797,4.64368 q 0.436829,0.74227 0.711432,0.82851 0.366488,0.1201 0.841544,-0.15947 l 0.279095,-0.16425 0.129301,0.21972 -2.802831,1.64946 -0.129301,-0.21971 0.285033,-0.16775 q 0.510686,-0.30053 0.542741,-0.73513 0.01881,-0.2669 -0.379575,-0.94386 l -3.994357,-6.78736 0.213775,-0.12581 9.124884,3.36032 -2.918012,-4.9584 q -0.436828,-0.74227 -0.705493,-0.832 -0.372426,-0.11661 -0.841544,0.15947 l -0.285034,0.16774 -0.129301,-0.21971 2.802832,-1.64947 0.129301,0.21972 -0.279096,0.16424 q -0.516623,0.30404 -0.548678,0.73863 -0.01881,0.2669 0.379575,0.94386 l 3.295432,5.59972 q 0.591483,0.20356 0.852449,0.22586 0.255028,0.0258 0.671779,-0.0675 0.20366,-0.0479 0.554014,-0.25409 z m -14.286097,-2.54175 0.08084,0.24178 -0.333267,0.11142 q -0.561979,0.18789 -0.677066,0.62594 -0.07167,0.26371 0.179578,1.01519 L 84.995,176.9234 q 0.277462,0.8299 0.530343,0.97784 0.35098,0.20232 0.854147,0.0341 l 0.333267,-0.11143 0.08084,0.24179 -3.607124,1.20597 q -1.986533,0.66416 -3.169753,0.55845 -1.189756,-0.10351 -2.168824,-0.94586 -0.985602,-0.84016 -1.446581,-2.21897 -0.61828,-1.8493 0.09058,-3.46666 0.798023,-1.807 3.379209,-2.66997 z m -2.314804,1.48588 q -0.891073,0.0945 -1.453052,0.28238 -1.516038,0.50686 -2.159727,1.90627 -0.64369,1.39941 -0.03415,3.22258 0.61391,1.83623 1.967637,2.56058 1.353728,0.72435 2.922043,0.20001 0.588118,-0.19662 1.276245,-0.63737 z m -9.321857,10.82461 -0.474849,-3.66248 -2.036232,0.264 q -0.792628,0.10277 -1.028108,0.37647 -0.314564,0.36039 -0.252796,1.15833 l -0.25282,0.0328 -0.418151,-3.22517 0.252821,-0.0328 q 0.183367,0.66406 0.303834,0.84298 0.154001,0.22321 0.451872,0.32355 0.297871,0.10033 0.878676,0.025 l 2.036232,-0.264 -0.396002,-3.05435 q -0.07973,-0.61497 -0.152115,-0.74454 -0.0715,-0.12274 -0.218787,-0.18702 -0.146405,-0.0574 -0.529052,-0.008 l -1.571589,0.20376 q -0.785795,0.10188 -1.126936,0.25727 -0.341141,0.1554 -0.627487,0.51907 -0.368719,0.47858 -0.702125,1.39028 l -0.273319,0.0354 0.49825,-2.42687 7.14048,-0.92578 0.03278,0.25282 -0.327983,0.0425 q -0.327984,0.0425 -0.601427,0.23777 -0.204481,0.13768 -0.251295,0.36608 -0.05365,0.22929 0.03406,0.90576 l 0.780488,6.01986 q 0.114283,0.88146 0.318518,1.06342 0.281424,0.24142 0.855396,0.16701 l 0.327984,-0.0425 0.03278,0.25282 -7.140479,0.92578 -0.365611,-2.01611 0.266487,-0.0345 q 0.238285,0.71253 0.45138,0.96281 0.206261,0.25117 0.566515,0.35037 0.286608,0.0671 0.976741,-0.0224 z m -13.244874,-3.1511 -1.807253,-3.11387 q -0.751675,-1.2916 -1.129057,-1.64751 -0.384704,-0.34947 -1.00129,-0.42399 l 0.0165,-0.25441 4.001676,0.2596 -0.0165,0.25441 q -0.399238,-0.019 -0.596665,0.0441 -0.148405,0.0525 -0.245818,0.17048 -0.104736,0.1244 -0.11321,0.25504 -0.01026,0.15814 0.04136,0.32029 0.04055,0.12001 0.338913,0.6296 l 1.426194,2.49535 2.115069,-2.37609 q 0.335279,-0.37872 0.406082,-0.51222 0.07036,-0.12663 0.07972,-0.27102 0.01427,-0.22002 -0.162004,-0.37645 -0.176278,-0.15644 -0.697495,-0.21096 l 0.0165,-0.25441 3.307228,0.21455 -0.0165,0.25441 q -0.352893,0.0116 -0.614431,0.10513 -0.437893,0.15112 -0.84256,0.42867 -0.404667,0.27755 -0.940311,0.87113 l -2.380437,2.63506 1.661415,2.80751 q 0.678533,1.14186 1.179233,1.51267 0.500253,0.37769 1.179612,0.44247 l -0.0165,0.2544 -4.311085,-0.27967 0.0165,-0.2544 q 0.551397,0.0151 0.767928,-0.1297 0.209655,-0.14521 0.222145,-0.33773 0.0165,-0.2544 -0.281862,-0.76399 l -1.291432,-2.23113 -1.793096,1.9896 q -0.312867,0.35255 -0.38367,0.48605 -0.07768,0.13306 -0.08704,0.27745 -0.0094,0.14439 0.066,0.25975 0.09377,0.15108 0.248342,0.21635 0.154128,0.0721 0.648734,0.11113 l -0.0165,0.2544 -3.307228,-0.21455 0.0165,-0.2544 q 0.393255,0.005 0.647472,-0.0823 0.381549,-0.13405 0.708352,-0.38213 0.326804,-0.24809 0.937449,-0.93346 z m -12.047599,2.28326 q -1.751127,-0.49229 -2.656495,-2.18543 -0.913866,-1.68837 -0.354446,-3.67828 0.576203,-2.04962 2.250055,-3.03914 1.673852,-0.98952 3.511208,-0.47299 1.857256,0.52213 2.753087,2.19827 0.889198,1.67428 0.299942,3.77033 -0.602309,2.14247 -2.441987,3.08537 -1.596972,0.81789 -3.361364,0.32187 z m 0.262153,-0.44878 q 1.207216,0.33938 2.188592,-0.35096 1.222004,-0.85889 1.826178,-3.008 0.619091,-2.20217 0.01098,-3.65428 -0.469399,-1.10535 -1.656716,-1.43914 -1.266914,-0.35616 -2.367258,0.40093 -1.106977,0.75524 -1.705557,2.88445 -0.648928,2.3083 -0.05907,3.69802 0.476033,1.10722 1.762845,1.46898 z m -8.013208,-12.95036 -0.658101,8.62604 3.029244,-5.45826 q 0.417942,-0.75307 0.358928,-1.03011 -0.08248,-0.37674 -0.564446,-0.64422 l -0.289179,-0.16049 0.123711,-0.22291 2.843596,1.57815 -0.123711,0.22291 -0.289179,-0.16049 q -0.518113,-0.28755 -0.908861,-0.0946 -0.239534,0.11923 -0.620697,0.80603 l -2.962373,5.33777 q -0.300919,0.54221 -0.314169,0.85007 -0.01262,0.22152 0.152788,0.46304 0.156038,0.2442 0.656077,0.52172 l -0.12371,0.2229 -2.313435,-1.28391 0.583405,-8.03709 -6.463383,4.77379 -2.313434,-1.28391 0.123711,-0.22291 0.283154,0.15714 q 0.524138,0.29089 0.914886,0.098 0.239534,-0.11923 0.620697,-0.80603 l 2.962373,-5.33777 q 0.417942,-0.75307 0.352904,-1.03345 -0.08248,-0.37674 -0.564446,-0.64422 l -0.283155,-0.15715 0.123711,-0.22291 3.470151,1.92588 -0.12371,0.22291 -0.28918,-0.16049 q -0.524137,-0.29089 -0.908861,-0.0946 -0.239534,0.11923 -0.620697,0.80603 l -3.029244,5.45826 6.965825,-5.12536 z m -13.049423,-5.63237 2.710506,2.39548 1.45143,-0.68507 q 0.536002,-0.25273 0.713952,-0.45408 0.141448,-0.16005 0.101233,-0.41628 -0.04994,-0.25563 -0.523963,-0.73893 l 0.168825,-0.19103 2.204545,1.94833 -0.168824,0.19103 q -0.507287,-0.3104 -0.745867,-0.30056 -0.482322,0.0151 -1.473156,0.49116 l -7.554809,3.58529 -0.1807,-0.1597 2.709999,-7.97737 q 0.326261,-0.96223 0.275845,-1.3838 -0.06014,-0.42097 -0.465845,-0.8255 l 0.168824,-0.19103 2.762136,2.44112 -0.168825,0.19103 q -0.436444,-0.34894 -0.685949,-0.35796 -0.254669,-0.0136 -0.405242,0.1568 -0.200765,0.22717 -0.427719,0.90016 z m -0.19309,0.50981 -1.312971,3.8787 3.718869,-1.75242 z m -12.021419,-5.16898 1.651338,-1.44381 0.16286,0.20501 q -0.40604,0.41935 -0.518831,0.67615 -0.180053,0.41582 -0.102857,0.81208 0.06752,0.39515 0.427522,0.84833 l 0.818589,1.03046 5.589269,-4.4401 q 0.674381,-0.53572 0.72591,-0.81425 0.06373,-0.38501 -0.274847,-0.81122 l -0.201433,-0.25357 0.199617,-0.15857 2.464338,3.10215 -0.199617,0.15857 -0.205718,-0.25896 q -0.36858,-0.46397 -0.803411,-0.43533 -0.266929,0.0185 -0.881965,0.50703 l -5.589269,4.4401 0.698587,0.87939 q 0.407151,0.51253 0.654114,0.66833 0.325368,0.19911 0.775275,0.1673 0.449907,-0.0318 0.976252,-0.38835 l 0.162861,0.20501 -1.784198,1.27657 z m -3.9615309,-6.42257 q -0.8401808,-1.61335 -0.2260598,-3.43249 0.6048277,-1.82206 2.4381767,-2.77681 1.88835,-0.9834 3.755616,-0.44095 1.867265,0.54245 2.748819,2.23524 0.8911,1.71113 0.282837,3.51168 -0.611446,1.79444 -2.542574,2.80011 -1.973907,1.02794 -3.920735,0.33272 -1.689534,-0.60393 -2.5360799,-2.2295 z m 0.5065829,-0.11621 q 0.579215,1.11223 1.754298,1.35482 1.462678,0.30257 3.442696,-0.72856 2.028906,-1.05659 2.670889,-2.49405 0.484226,-1.09893 -0.08544,-2.19283 -0.607858,-1.16723 -1.913052,-1.45082 -1.308376,-0.28971 -3.27006,0.73188 -2.126686,1.10751 -2.735692,2.48894 -0.4810429,1.10505 0.136363,2.29062 z m 2.909195,-18.32179 0.685853,2.3981 -3.330353,4.24187 q 0.109875,0.33407 0.170503,0.54605 0.02463,0.0861 0.05305,0.18549 0.02179,0.10127 0.04548,0.20915 l 2.610085,-0.74648 q 0.847946,-0.24251 1.000259,-0.48673 0.219486,-0.3351 0.0755,-0.83857 l -0.100415,-0.3511 0.245109,-0.0701 1.100775,3.84888 -0.245109,0.0701 -0.09663,-0.33785 q -0.162937,-0.56972 -0.604015,-0.70873 -0.245149,-0.0804 -1.0136,0.1394 l -5.8031328,1.65969 q -0.8479463,0.24251 -1.0002589,0.48673 -0.2175913,0.34172 -0.071706,0.85181 l 0.096626,0.33786 -0.2451095,0.0701 -0.935943,-3.27254 q -0.4092382,-1.43091 -0.390503,-2.16725 0.010216,-0.74106 0.4387872,-1.37245 0.420052,-0.63612 1.195128,-0.85779 0.8280725,-0.23683 1.5928929,0.13208 0.7629258,0.36229 1.3386401,1.4231 l 2.046468,-2.5919 q 0.70581,-0.88983 0.866563,-1.43029 0.160753,-0.54046 0.02994,-1.29853 z m -2.792812,7.70002 q -0.036,-0.12586 -0.0559,-0.2205 -0.02652,-0.0927 -0.04358,-0.15237 -0.367557,-1.28517 -1.1096947,-1.77523 -0.7440323,-0.49668 -1.6052278,-0.25038 -0.8413217,0.24062 -1.2130938,0.92026 -0.3802914,0.67491 -0.132096,1.54273 0.1098881,0.38423 0.4233226,1.00406 z m -1.3379839,-12.25448 -0.1914007,-3.55708 1.0389156,-0.0559 0.1914,3.55708 z m -0.3598378,-12.1697 2.6887597,0.42167 q 0.871294,0.13664 1.112201,-0.0209 0.340073,-0.2117 0.422273,-0.73583 l 0.05551,-0.35397 0.251858,0.0395 -0.620231,3.95486 -0.251859,-0.0395 0.05444,-0.34715 q 0.09181,-0.58541 -0.249886,-0.89705 -0.189666,-0.16923 -0.979276,-0.29306 l -5.9629193,-0.93515 q -0.8712942,-0.13665 -1.1111339,0.014 -0.3411408,0.2185 -0.4233401,0.74264 l -0.054444,0.34716 -0.2518584,-0.0395 0.5305596,-3.38307 q 0.1942894,-1.23888 0.5650449,-1.91304 0.3639485,-0.67524 1.0466319,-1.07033 0.6826835,-0.3951 1.5131357,-0.26486 1.1299596,0.17721 1.7204584,1.037 0.5915663,0.85299 0.3780614,2.21438 -0.052309,0.33355 -0.1608064,0.71407 -0.1084978,0.38053 -0.2731847,0.80804 z m -0.3879982,-0.0609 q 0.1246487,-0.3501 0.2024521,-0.62385 0.077803,-0.27375 0.1087616,-0.47115 0.1110226,-0.70792 -0.3534719,-1.30385 -0.470234,-0.6038 -1.3415281,-0.74044 -0.5990147,-0.0939 -1.1479695,0.071 -0.5557618,0.16392 -0.8780769,0.57368 -0.329122,0.4087 -0.418794,0.98049 -0.054444,0.34715 -0.010513,0.91199 z m 7.4078049,-10.01138 -8.6325347,0.56665 5.8313437,2.22808 q 0.804546,0.3074 1.070473,0.20986 0.361319,-0.13486 0.558059,-0.64977 l 0.118044,-0.30894 0.238145,0.091 -1.160765,3.03796 -0.238145,-0.091 0.118044,-0.30895 q 0.211495,-0.55352 -0.03466,-0.91311 -0.15186,-0.2203 -0.885605,-0.50065 l -5.7026173,-2.1789 q -0.5792726,-0.22133 -0.8859121,-0.19097 -0.2210839,0.0188 -0.4368262,0.21664 -0.2197194,0.18897 -0.423837,0.72318 l -0.2381454,-0.091 0.9443512,-2.47156 8.0389298,-0.55743 -5.6387038,-5.724462 0.9443512,-2.471563 0.2381454,0.09099 -0.1155846,0.302509 q -0.2139546,0.559963 0.032203,0.919553 0.1518601,0.220296 0.8856058,0.50065 l 5.702617,2.178894 q 0.804545,0.307409 1.072931,0.203429 0.36132,-0.134862 0.558059,-0.649771 l 0.115585,-0.302509 0.238145,0.09099 -1.416526,3.70734 -0.238146,-0.091 0.118044,-0.30895 q 0.213955,-0.55996 -0.03466,-0.91311 -0.151861,-0.2203 -0.885606,-0.50065 l -5.8313442,-2.228079 6.0577032,6.172219 z m -3.023928,-13.806927 3.083151,1.995298 0.92465,-1.428778 q 0.318199,-0.491684 0.250169,-0.855791 -0.07007,-0.373634 -0.663487,-0.864364 l 0.13851,-0.214027 2.655096,1.718276 -0.13851,0.214028 q -0.460721,-0.289954 -0.749619,-0.312774 -0.285154,-0.0286 -0.520299,0.10647 -0.237185,0.125547 -0.491745,0.518895 l -0.92465,1.428777 2.464207,1.59474 q 0.595806,0.385583 0.835361,0.43392 0.182048,0.03574 0.405962,-0.08198 0.303544,-0.164674 0.483233,-0.442332 l 0.183432,-0.283441 0.214028,0.13851 -2.17873,3.366592 -0.214028,-0.13851 0.179689,-0.277657 q 0.314456,-0.4859 0.173269,-0.889144 -0.09526,-0.258622 -0.800972,-0.715331 L 13.08794,93.224856 q -0.595806,-0.385583 -0.835361,-0.43392 -0.182048,-0.03574 -0.402219,0.07619 -0.2998,0.15889 -0.483232,0.442331 l -0.179689,0.277658 -0.214028,-0.138511 3.777214,-5.836583 1.772454,1.040371 -0.131024,0.202458 q -0.646861,-0.205237 -1.032403,-0.167494 -0.387583,0.02822 -0.694194,0.248356 -0.302866,0.214356 -0.699679,0.827515 z m 10.739135,-5.624126 2.514579,-2.523161 0.736939,0.734432 -2.514579,2.523162 z m 12.246489,-5.786446 0.145829,0.209109 -3.283581,2.28991 -0.145829,-0.20911 0.271277,-0.189183 q 0.474734,-0.331072 0.49637,-0.757771 0.0095,-0.275443 -0.471325,-0.964938 l -3.4526,-4.950805 q -0.405957,-0.582115 -0.609491,-0.71738 -0.155049,-0.101877 -0.401193,-0.08142 -0.343262,0.03778 -0.614539,0.226963 l -0.271277,0.189184 -0.145829,-0.209109 3.283581,-2.28991 0.145829,0.209109 -0.276928,0.19316 q -0.469083,0.32713 -0.490719,0.753829 -0.01517,0.279384 0.465674,0.96888 l 3.4526,4.950804 q 0.405956,0.582116 0.609491,0.717381 0.155049,0.101877 0.406844,0.07748 0.337611,-0.03384 0.608888,-0.223022 z m -3.607818,-8.683837 2.278649,-1.11219 8.206786,3.791796 -2.363404,-4.84213 q -0.377781,-0.773997 -0.644847,-0.881326 -0.356038,-0.14824 -0.851396,0.09354 l -0.291023,0.142046 -0.111824,-0.229103 2.922615,-1.426505 0.111824,0.229104 -0.297215,0.145068 q -0.532511,0.259914 -0.598265,0.690698 -0.03951,0.264633 0.305026,0.970519 l 3.454437,7.077435 -0.222911,0.108801 -8.835934,-4.059748 2.523583,5.170304 q 0.377782,0.773998 0.638655,0.884349 0.36223,0.145217 0.851396,-0.09354 l 0.297216,-0.145068 0.111823,0.229103 -2.922615,1.426504 -0.111824,-0.229103 0.291023,-0.142046 q 0.538703,-0.262936 0.604457,-0.69372 0.03951,-0.264633 -0.305026,-0.970519 l -2.849986,-5.839039 q -0.573862,-0.248933 -0.832303,-0.291467 -0.252249,-0.04556 -0.674999,0.01511 -0.206768,0.03192 -0.572095,0.210231 z m 14.045176,3.64501 -0.06179,-0.247336 0.340922,-0.08517 q 0.574889,-0.143615 0.723693,-0.571395 0.09196,-0.257335 -0.100087,-1.026082 l -1.46287,-5.855802 Q 45.497232,66.408615 45.256621,66.241462 44.922438,66.01246 44.407712,66.141046 l -0.340923,0.08517 -0.06179,-0.247336 3.689985,-0.921809 q 2.032165,-0.507664 3.203583,-0.310267 1.178102,0.195727 2.088699,1.111658 0.917283,0.91426 1.269641,2.324744 0.472594,1.891785 -0.359894,3.449119 -0.936129,1.739467 -3.576607,2.399096 z m 2.423345,-1.301374 q 0.895723,-0.02491 1.470611,-0.168526 1.550863,-0.387427 2.30143,-1.732543 0.750566,-1.345117 0.284651,-3.210163 -0.469254,-1.878416 -1.762553,-2.705845 -1.293298,-0.827429 -2.897639,-0.426642 -0.601628,0.150295 -1.321946,0.536197 z m 10.135395,-10.066898 0.188599,3.688321 2.050596,-0.104856 q 0.798219,-0.04082 1.05427,-0.29538 0.341637,-0.334832 0.342108,-1.135162 l 0.254604,-0.01302 0.16608,3.247924 -0.254604,0.01302 q -0.131172,-0.676312 -0.23736,-0.86406 -0.136177,-0.234508 -0.425344,-0.357705 -0.289166,-0.123198 -0.874067,-0.09329 l -2.050597,0.104855 0.157284,3.075895 q 0.03167,0.619307 0.09375,0.754116 0.06173,0.127928 0.203582,0.203465 0.141494,0.06866 0.526841,0.04895 l 1.582675,-0.08093 q 0.791337,-0.04046 1.14353,-0.168861 0.352192,-0.128396 0.665952,-0.468702 0.404818,-0.448449 0.808113,-1.33147 l 0.275248,-0.01407 -0.685466,2.380774 -7.190849,0.367698 -0.01302,-0.254604 0.330297,-0.01689 q 0.330297,-0.01689 0.618096,-0.190287 0.214568,-0.121359 0.279002,-0.345428 0.07132,-0.224421 0.03648,-0.905659 l -0.309993,-6.062333 q -0.04539,-0.887674 -0.234857,-1.084962 -0.261798,-0.26258 -0.839818,-0.233024 l -0.330298,0.01689 -0.01302,-0.254604 7.19085,-0.367699 0.207721,2.038437 -0.268366,0.01372 Q 63.094051,64.257262 62.901065,63.991163 62.714961,63.724712 62.363512,63.5978 62.082986,63.50866 61.387986,63.54419 Z m 12.959282,4.17148 1.559655,3.244968 q 0.648967,1.346141 0.997532,1.730314 0.356365,0.378332 0.965289,0.500573 l -0.03624,0.252349 -3.969375,-0.569975 0.03624,-0.252348 q 0.396552,0.04998 0.598292,0.0024 0.152038,-0.04082 0.25833,-0.150849 0.11409,-0.115874 0.132698,-0.245458 0.02252,-0.156865 -0.01633,-0.322545 -0.03109,-0.122799 -0.288931,-0.654044 l -1.227844,-2.598688 -2.293424,2.204433 q -0.363712,0.351503 -0.444681,0.479093 -0.07999,0.120771 -0.100556,0.263996 -0.03134,0.218247 0.132242,0.387914 0.16358,0.169667 0.678979,0.264557 l -0.03624,0.252349 -3.280531,-0.471061 0.03623,-0.252349 q 0.352729,0.01584 0.620747,-0.05704 0.448317,-0.116607 0.87334,-0.361855 0.425024,-0.245247 1.005201,-0.795376 l 2.578126,-2.441985 -1.438081,-2.928194 q -0.58769,-1.191164 -1.05804,-1.599785 -0.469371,-0.415441 -1.141636,-0.532857 l 0.03624,-0.252348 4.276285,0.614045 -0.03624,0.252348 q -0.548556,-0.05789 -0.775688,0.0696 -0.220312,0.128465 -0.247733,0.319431 -0.03623,0.252349 0.221603,0.783593 l 1.114034,2.324794 1.942374,-1.84415 q 0.339334,-0.32716 0.420302,-0.454751 0.08779,-0.126611 0.108355,-0.269836 0.02057,-0.143225 -0.04561,-0.2641 -0.08174,-0.157915 -0.230768,-0.235002 -0.148051,-0.08391 -0.638128,-0.161239 l 0.03624,-0.252349 3.280531,0.471061 -0.03624,0.252349 q -0.391691,-0.03536 -0.65191,0.03169 -0.390817,0.103981 -0.735922,0.3259 -0.345104,0.221919 -1.007194,0.857737 z M 83.97547,66.50681 q 1.707553,0.626943 2.478546,2.385345 0.779837,1.754308 0.0674,3.694709 -0.733808,1.998613 -2.479524,2.855003 -1.745717,0.85639 -3.537353,0.198575 -1.811041,-0.664939 -2.573848,-2.405655 -0.756339,-1.738341 -0.0059,-3.78223 0.767055,-2.089165 2.674471,-2.886186 1.655725,-0.691253 3.376214,-0.05956 z m -0.296251,0.427044 q -1.177177,-0.432211 -2.209253,0.179744 -1.285079,0.761279 -2.054509,2.856912 -0.788428,2.147377 -0.295057,3.642369 0.382042,1.1385 1.539814,1.563586 1.235389,0.453583 2.391264,-0.215676 1.162343,-0.666885 1.924648,-2.743114 0.826424,-2.250865 0.346396,-3.682239 -0.38851,-1.140875 -1.643303,-1.601582 z m 6.981564,13.533807 1.326636,-8.548789 -3.444364,5.206272 q -0.475216,0.718304 -0.437915,0.999091 0.05294,0.382014 0.51266,0.686152 l 0.275829,0.182483 -0.140664,0.212618 -2.712318,-1.794415 0.140664,-0.212618 0.275829,0.182483 q 0.494194,0.326948 0.898755,0.164996 0.248077,-0.100248 0.681474,-0.755342 l 3.368329,-5.091343 q 0.342155,-0.51718 0.379295,-0.823072 0.0298,-0.219871 -0.116332,-0.473518 -0.136583,-0.255593 -0.613538,-0.571136 l 0.140664,-0.212618 2.206632,1.459862 -1.206384,7.967419 6.814907,-4.256934 2.206628,1.459862 -0.14066,0.212618 -0.27008,-0.178681 q -0.49994,-0.33075 -0.904504,-0.168797 -0.248077,0.100248 -0.681474,0.755342 l -3.368329,5.091343 q -0.475216,0.718305 -0.432169,1.002892 0.05295,0.382015 0.512661,0.686153 l 0.270082,0.178681 -0.140664,0.212618 -3.309947,-2.189794 0.140664,-0.212618 0.275828,0.182483 q 0.499941,0.33075 0.898756,0.164995 0.248076,-0.100248 0.681473,-0.755341 l 3.444364,-5.206272 -7.343156,4.568382 z m 12.571677,6.629183 -2.51613,-2.598902 -1.500288,0.570197 q -0.554022,0.210307 -0.747083,0.39722 -0.153459,0.148572 -0.13328,0.407153 0.02992,0.258739 0.464948,0.777416 l -0.183161,0.177327 -2.046453,-2.113773 0.183161,-0.177327 q 0.481628,0.348885 0.720251,0.357619 0.482038,0.02242 1.506873,-0.37518 l 7.810602,-2.987288 0.16775,0.173261 -3.32181,7.742622 q -0.40006,0.933964 -0.38256,1.358175 0.0272,0.424369 0.40028,0.859206 l -0.18316,0.177328 -2.56406,-2.648405 0.18316,-0.177327 q 0.40801,0.381803 0.65606,0.41018 0.25284,0.03333 0.4162,-0.124829 0.21781,-0.210875 0.49639,-0.864187 z m 0.23212,-0.493263 1.61046,-3.764927 -3.84382,1.458093 z m 11.58302,6.087138 -1.75854,1.31112 -0.14644,-0.217048 q 0.4374,-0.386532 0.56981,-0.633785 0.21182,-0.400574 0.16565,-0.801633 -0.0366,-0.399202 -0.3603,-0.878992 l -0.73604,-1.090951 -5.91741,3.992323 q -0.71397,0.481699 -0.78699,0.755379 -0.0935,0.378899 0.21098,0.83013 l 0.18112,0.268453 -0.21134,0.142583 -2.21582,-3.284275 0.21134,-0.142583 0.18497,0.274165 q 0.33141,0.491214 0.76715,0.496451 0.26756,0.0023 0.9187,-0.436965 l 5.91741,-3.992323 -0.62813,-0.931021 q -0.3661,-0.542619 -0.6002,-0.71714 -0.30891,-0.223795 -0.75993,-0.227037 -0.45102,-0.0032 -1.00348,0.311306 l -0.14644,-0.217047 1.87801,-1.134055 z m 3.45019,6.710385 q 0.71229,1.673756 -0.0413,3.439676 -0.74458,1.76956 -2.64657,2.57897 -1.95905,0.8337 -3.77852,0.14781 -1.81947,-0.68589 -2.56683,-2.44206 -0.75545,-1.77519 -0.009,-3.52304 0.74903,-1.741505 2.75246,-2.594088 2.04781,-0.87147 3.93473,-0.02708 1.6375,0.733379 2.35518,2.419811 z m -0.51408,0.0765 q -0.49104,-1.153874 -1.64372,-1.487034 -1.43475,-0.415304 -3.4889,0.458864 -2.10487,0.895752 -2.8566,2.278976 -0.56815,1.05799 -0.0852,2.19285 0.51533,1.21093 1.79454,1.59508 1.28191,0.39048 3.31704,-0.47559 2.20631,-0.93892 2.92081,-2.26886 0.56545,-1.06433 0.042,-2.294286 z m -4.32405,18.039786 -0.49747,-2.44414 3.64982,-3.97032 q -0.0836,-0.34159 -0.12756,-0.55765 -0.0179,-0.0878 -0.0385,-0.18905 -0.0139,-0.10265 -0.0291,-0.21205 l -2.66019,0.54145 q -0.86422,0.17591 -1.03505,0.40756 -0.24485,0.31703 -0.14041,0.83016 l 0.0728,0.35785 -0.24982,0.0508 -0.79844,-3.92276 0.24982,-0.0508 0.0701,0.34434 q 0.11818,0.58065 0.54713,0.75351 0.23816,0.0992 1.02136,-0.0602 l 5.91453,-1.20384 q 0.86423,-0.1759 1.03505,-0.40755 0.24348,-0.32379 0.13767,-0.84367 l -0.0701,-0.34434 0.24982,-0.0508 0.67887,3.33536 q 0.29684,1.45838 0.22096,2.19103 -0.0678,0.73804 -0.54409,1.33422 -0.4682,0.60156 -1.25815,0.76235 -0.84397,0.17178 -1.57782,-0.25543 -0.73247,-0.42046 -1.22404,-1.52279 l -2.24164,2.42507 q -0.77281,0.83232 -0.97506,1.35866 -0.20225,0.52633 -0.13073,1.29227 z m 3.38257,-7.45979 q 0.0261,0.12829 0.0386,0.22418 0.0192,0.0945 0.0316,0.15529 0.2666,1.30984 0.96842,1.85608 0.7032,0.55298 1.58093,0.37433 0.85747,-0.17453 1.28092,-0.82323 0.43157,-0.64333 0.25155,-1.52781 -0.0797,-0.3916 -0.34404,-1.03391 z M 316.68114,-3.6862493 h 3.56222 v 1.040418 h -3.56222 z"
       id="text2"
       style="font-size:14.1111px;line-height:77.724px;font-family:'Times New Roman';-inkscape-font-specification:'Times New Roman, ';letter-spacing:0.375708px;word-spacing:0.015875px;fill:#f8fafc;fill-opacity:1;stroke-width:0.264583"
       aria-label="PMF - INDEXOMATOR - PMF - INDEXOMATOR -" />
  </g>
</svg>
